<svg id="Group_22" data-name="Group 22" xmlns="http://www.w3.org/2000/svg" width="178.575" height="145.697" viewBox="0 0 178.575 145.697">
  <path id="Path_59" data-name="Path 59" d="M135.675,12.458C121.458-6,97.284.376,86.508,4.5a4.781,4.781,0,0,0-3.916-2.334c-3,0-5.353,3.276-5.353,7.452s2.353,7.456,5.353,7.456c1.9,0,3.536-1.315,4.485-3.337,6.909-2.955,29.909-11.195,41.66,4.064,7.353,9.545,8.825,34.336-10.921,59.554a4.378,4.378,0,0,0,6.893,5.4c21.315-27.225,21.56-56.539,10.966-70.3" transform="translate(36.041 0)" fill="#fff"/>
  <path id="Path_60" data-name="Path 60" d="M183.21,78.614a4.9,4.9,0,0,0-.582-.238c-11.725-3.807-21.788.4-29.877,3.774l-1.083.45a110.719,110.719,0,0,0-10.719,5.369l-5.144,2.8a68.067,68.067,0,0,1-11.172,5.273,16.987,16.987,0,0,1-15.172-2.3,18.006,18.006,0,0,1-7.738-14.31c-.386-12.346,14.516-19.341,26.659-22.987a16.791,16.791,0,1,0-2.009-8.619C111.66,52.154,92.4,61.346,92.971,79.7a27.041,27.041,0,0,0,11.468,21.206,25.661,25.661,0,0,0,22.929,3.446A75.819,75.819,0,0,0,140,98.45l2.218-1.2c.984-.527,1.961-1.064,2.938-1.6a101.923,101.923,0,0,1,9.867-4.964l1.093-.46c7.343-3.061,14.93-6.221,23.412-3.646a6.247,6.247,0,0,1,2.649,3.353c.53,1.913-.119,4.315-1.932,7.144-9.34,14.577-24.382,23.891-45.212,36.783l-3.7,2.3C67.091,95.48,54.154,58.183,51.575,43.921,49.63,33.186,51.154,23.9,55.861,17.8c11.265-14.625,32.88-7.648,40.727-4.446.916,2.238,2.636,3.723,4.649,3.723,3,0,5.353-3.279,5.353-7.456s-2.35-7.456-5.353-7.456A4.7,4.7,0,0,0,97.479,4.27C86.426.152,62.879-5.661,48.926,12.459c-6.234,8.089-8.356,19.824-5.964,33.021C48.913,78.408,80.275,114.692,129,145.035a4.395,4.395,0,0,0,4.63,0l6.012-3.729c21.8-13.5,37.561-23.257,47.968-39.5,3.218-5.019,4.224-9.8,3-14.217a15.05,15.05,0,0,0-7.4-8.973" transform="translate(-42.004 0.003)" fill="#fff"/>
</svg>
