<svg xmlns="http://www.w3.org/2000/svg" width="355" height="75" viewBox="0 0 355 75">
  <g id="Group_2998" data-name="Group 2998" transform="translate(-614.004 573)">
    <g id="Group_4" data-name="Group 4" transform="translate(718.388 -560.233)">
      <path id="Path_31" data-name="Path 31" d="M7.26,57.433v6.306H3.378V57.433H.049v16.5H3.378V66.607H7.26v7.325h3.325v-16.5Z" transform="translate(0.033 -57.431)" fill="#1a1818"/>
      <path id="Path_32" data-name="Path 32" d="M19.938,71.2H13.814V66.766H19.36V64.043H13.814V60.159h5.893V57.433h-9.22v16.5h9.451Z" transform="translate(7.064 -57.432)" fill="#1a1818"/>
      <path id="Path_33" data-name="Path 33" d="M23.428,70.443h4.39l.763,3.489h3.464l-4.366-16.5H23.567L19.2,73.932h3.464ZM25.6,60.3h.047l1.595,7.417H24.006Z" transform="translate(12.932 -57.432)" fill="#1a1818"/>
      <path id="Path_34" data-name="Path 34" d="M39.545,71.2H33.652V57.432H30.327v16.5h9.218Z" transform="translate(20.428 -57.432)" fill="#1a1818"/>
      <path id="Path_35" data-name="Path 35" d="M41.263,73.931h3.325V60.159h3.6V57.433H37.658v2.726h3.6Z" transform="translate(25.367 -57.432)" fill="#1a1818"/>
      <path id="Path_36" data-name="Path 36" d="M50.9,66.607h3.881v7.325h3.33v-16.5h-3.33V63.74H50.9V57.432H47.572v16.5H50.9Z" transform="translate(32.044 -57.432)" fill="#1a1818"/>
      <path id="Path_37" data-name="Path 37" d="M63.08,66.939a4.194,4.194,0,0,0-.092.9,2.392,2.392,0,0,0,2.4,2.659,2.92,2.92,0,0,0,2.358-1.135A2.06,2.06,0,0,0,69.526,70.5c1.2,0,2.865-.832,3.928-3.26a2.907,2.907,0,0,0,.6.094,1.453,1.453,0,0,0,1.409-.763l.045-.092-.37-.187-.045.1a1.082,1.082,0,0,1-1.039.577,1.7,1.7,0,0,1-.464-.07,7.713,7.713,0,0,0,.626-2.818v-.208A1.01,1.01,0,0,0,73.18,62.8a2.087,2.087,0,0,0-1.921,2.124,2.176,2.176,0,0,0,1,1.759c-.487,2.194-1.664,3.3-2.589,3.3-.509,0-.832-.276-.832-1.247a9.959,9.959,0,0,1,.208-1.756l.348-1.8H67.816l-.045.254c-.462,2.266-.81,4.552-2.174,4.552-.46,0-.763-.37-.763-1.339a10.316,10.316,0,0,1,.187-1.664c.39-2.035.576-2.8.644-3.168a2.334,2.334,0,0,0,.049-.392c0-.045-.049-.094-.139-.094H63.958v.049a9.051,9.051,0,0,1-1.043,2.957l-.022.047.278.137Zm8.55-2.012c0-.691.323-1.2.554-1.2s.3.51.3.832a10.134,10.134,0,0,1-.139,1.732,1.779,1.779,0,0,1-.716-1.362" transform="translate(42.365 -53.813)" fill="#1a1818"/>
      <path id="Path_38" data-name="Path 38" d="M71.565,68.2c0,1.018.325,2.082,1.386,2.082,1.319,0,2.311-1.064,3.143-2.659l.695-1.362-.346-.187-.7,1.367c-.875,1.756-1.8,2.194-2.147,2.194-.184,0-.3-.069-.3-.417a12.233,12.233,0,0,1,.3-1.895,34.768,34.768,0,0,1,.926-3.976v-.023c0-.137-.162-.208-.325-.208H72.027l-.047.37h.649a10.93,10.93,0,0,1-1.019,2.636l-.023.047.278.137-.208.947a6.223,6.223,0,0,0-.092.947" transform="translate(48.206 -53.601)" fill="#1a1818"/>
      <path id="Path_39" data-name="Path 39" d="M73.53,62.635a1.357,1.357,0,0,0,1.294-1.3.937.937,0,0,0-.969-.926,1.353,1.353,0,0,0-1.3,1.272.959.959,0,0,0,.971.949" transform="translate(48.876 -55.423)" fill="#1a1818"/>
      <path id="Path_40" data-name="Path 40" d="M75.957,68.069l-.023.045.276.141-.208.9a2.711,2.711,0,0,0-.069.741c0,1.178.325,2.288,1.849,2.288,1.317,0,2.335-1.041,3.188-2.7l.669-1.315-.346-.187L80.6,69.34c-.761,1.478-1.456,2.055-2.333,2.286a.583.583,0,0,1-.186.023c-.325,0-.417-.3-.417-.693a10.243,10.243,0,0,1,.279-1.8l.969-5.014H81.27l.047-.509H79.03c.3-1.456.534-2.679.671-3.1v-.023c0-.137-.162-.208-.325-.208H77.828v.045a17.075,17.075,0,0,1-.507,3.282H75.748l-.069.509h1.5a25.735,25.735,0,0,1-1.223,3.93" transform="translate(50.977 -55.498)" fill="#1a1818"/>
      <path id="Path_41" data-name="Path 41" d="M82.348,70.311c1.826-2.957,3.421-3.975,4.37-3.975.208,0,.321.186.321.669a12.223,12.223,0,0,1-.623,3.074,5.989,5.989,0,0,0-.256,1.55c0,1.177.649,1.5,1.319,1.5a2.465,2.465,0,0,0,1.617-.484,8.952,8.952,0,0,0,1.364-2.219l.669-1.317-.323-.187-.693,1.367a8.745,8.745,0,0,1-1.294,2.1.8.8,0,0,1-.442.186c-.208,0-.345-.139-.345-.579a8.059,8.059,0,0,1,.372-1.824,8.821,8.821,0,0,0,.3-2.105c0-1.618-.787-2.239-1.987-2.239-1.133,0-2.591,1.039-4.139,3.212.139-.855.231-1.665.3-2.427,1.247-1.965,2.8-4.484,2.8-6.01-.022-1.572-2.172-1.709-2.427-1.709-.07,0-1.018.045-1.111.184-.552.716-.368,4.161-1.709,11.024l-.554,2.889h1.965Zm.74-8.042V60.652a3.286,3.286,0,0,1,.162-1.366l.022-.022c.348.022,2.035.321,2.035,1.339,0,1.2-1.155,3.26-2.335,5.155.115-1.364.115-2.542.115-3.489" transform="translate(53.805 -56.447)" fill="#1a1818"/>
      <path id="Path_42" data-name="Path 42" d="M96.592,66.607h3.881v7.325H103.8v-16.5h-3.329V63.74H96.592V57.432H93.267v16.5h3.325Z" transform="translate(62.825 -57.432)" fill="#1a1818"/>
      <path id="Path_43" data-name="Path 43" d="M113.155,71.2h-6.124V66.766h5.546V64.043h-5.546V60.159h5.891V57.433H103.7v16.5h9.451Z" transform="translate(69.855 -57.432)" fill="#1a1818"/>
      <path id="Path_44" data-name="Path 44" d="M116.643,70.443h4.392l.761,3.489h3.466l-4.366-16.5h-4.112l-4.366,16.5h3.463ZM118.815,60.3h.045l1.595,7.417h-3.233Z" transform="translate(75.724 -57.432)" fill="#1a1818"/>
      <path id="Path_45" data-name="Path 45" d="M126.871,66.952h1.781a1.779,1.779,0,0,1,1.478.556,2.622,2.622,0,0,1,.485,1.525l.092,3.166c.017.323.047.636.092.936a1.812,1.812,0,0,0,.323.8h3.607v-.141a1.293,1.293,0,0,1-.6-.947c-.062-.462-.107-1.133-.137-2.008-.017-.447-.033-.852-.047-1.213s-.039-.7-.07-1.006a3.419,3.419,0,0,0-.715-2.01,3.013,3.013,0,0,0-1.824-.81v-.047A3.1,3.1,0,0,0,133.41,64.4a4.96,4.96,0,0,0,.671-2.716,4.112,4.112,0,0,0-1.156-3.2,4.643,4.643,0,0,0-3.233-1.051h-6.149v16.5h3.329Zm0-7.069h1.572a2.033,2.033,0,0,1,2.311,2.288,2.417,2.417,0,0,1-.649,1.906,2.719,2.719,0,0,1-1.846.567h-1.387Z" transform="translate(83.218 -57.431)" fill="#1a1818"/>
      <path id="Path_46" data-name="Path 46" d="M136.81,73.931h3.33V60.159h3.6V57.433H133.209v2.726h3.6Z" transform="translate(89.729 -57.432)" fill="#1a1818"/>
      <path id="Path_47" data-name="Path 47" d="M31.992,90.3h.79V86.355h3.97v-.673h-3.97v-3h4.47v-.673h-5.26Z" transform="translate(21.55 -40.875)" fill="#1a1818"/>
      <path id="Path_48" data-name="Path 48" d="M39.512,82.012,36.182,90.3h.835l1-2.577h3.772L42.8,90.3h.849L40.4,82.012Zm-1.252,5.039,1.66-4.249,1.6,4.249Z" transform="translate(24.372 -40.875)" fill="#1a1818"/>
      <path id="Path_49" data-name="Path 49" d="M46.5,89.281l-2.867-7.268H42.467V90.3h.79V83.139h.022L46.126,90.3h.743L49.7,83.139h.025V90.3h.79V82.012H49.351Z" transform="translate(28.606 -40.875)" fill="#1a1818"/>
      <rect id="Rectangle_7" data-name="Rectangle 7" width="0.788" height="8.291" transform="translate(83.149 41.138)" fill="#1a1818"/>
      <path id="Path_50" data-name="Path 50" d="M53.366,82.012h-.792V90.3h5.434v-.671H53.366Z" transform="translate(35.414 -40.875)" fill="#1a1818"/>
      <path id="Path_51" data-name="Path 51" d="M60.013,86.215l-2.728-4.2h-.929l3.25,4.877V90.3H60.4V86.889l3.272-4.877h-.941Z" transform="translate(37.961 -40.874)" fill="#1a1818"/>
      <path id="Path_52" data-name="Path 52" d="M71.329,82.634a2.106,2.106,0,0,0-.778-.464,3.034,3.034,0,0,0-1.009-.157H65.86V90.3h.79V86.749h2.892a3.034,3.034,0,0,0,1.009-.157,2.106,2.106,0,0,0,.778-.464,2.04,2.04,0,0,0,.5-.748,2.95,2.95,0,0,0,0-2,2.061,2.061,0,0,0-.5-.75M70.7,85.658a2.032,2.032,0,0,1-1.334.417H66.65V82.686h2.718A2.041,2.041,0,0,1,70.7,83.1a1.846,1.846,0,0,1,0,2.556" transform="translate(44.363 -40.874)" fill="#1a1818"/>
      <path id="Path_53" data-name="Path 53" d="M77.841,89.3q-.035-.309-.045-.613c-.008-.2-.017-.372-.025-.509a4.089,4.089,0,0,0-.1-.691,1.606,1.606,0,0,0-.243-.564,1.407,1.407,0,0,0-.435-.4,1.882,1.882,0,0,0-.674-.214v-.023a1.849,1.849,0,0,0,1.207-.745,2.31,2.31,0,0,0,.408-1.369,2.175,2.175,0,0,0-.2-.967,1.9,1.9,0,0,0-.547-.676,2.368,2.368,0,0,0-.8-.388,3.652,3.652,0,0,0-.969-.127h-3.8V90.3h.79v-3.68h3a1.5,1.5,0,0,1,.877.184,1.413,1.413,0,0,1,.489.552,2.421,2.421,0,0,1,.219.78c.035.29.06.581.075.875.007.085.015.186.023.3s.018.234.03.355a2.579,2.579,0,0,0,.057.346.971.971,0,0,0,.112.285h.87a1.063,1.063,0,0,1-.2-.423,3.779,3.779,0,0,1-.11-.579m-1.8-3.461a2.117,2.117,0,0,1-.685.109H72.407V82.686h2.951a1.821,1.821,0,0,1,1.346.443,1.624,1.624,0,0,1,.442,1.207,1.517,1.517,0,0,1-.146.678,1.542,1.542,0,0,1-.388.505,1.723,1.723,0,0,1-.569.32" transform="translate(48.241 -40.874)" fill="#1a1818"/>
      <path id="Path_54" data-name="Path 54" d="M80.422,82.012,77.092,90.3h.835l1-2.577H82.7L83.711,90.3h.843l-3.248-8.289Zm-1.254,5.039L80.827,82.8l1.6,4.249Z" transform="translate(51.929 -40.875)" fill="#1a1818"/>
      <path id="Path_55" data-name="Path 55" d="M89.457,88.254a2.891,2.891,0,0,1-.544.842,2.5,2.5,0,0,1-.8.569,2.552,2.552,0,0,1-1.044.209,3,3,0,0,1-1.416-.313,2.786,2.786,0,0,1-.969-.832,3.63,3.63,0,0,1-.559-1.172,5.045,5.045,0,0,1,0-2.664,3.645,3.645,0,0,1,.559-1.168,2.8,2.8,0,0,1,.969-.83,3,3,0,0,1,1.416-.313,2.794,2.794,0,0,1,.865.134,2.568,2.568,0,0,1,.755.39,2.28,2.28,0,0,1,.579.633,2.617,2.617,0,0,1,.343.852H90.4a2.832,2.832,0,0,0-.39-1.148,3.015,3.015,0,0,0-.768-.843,3.315,3.315,0,0,0-1.021-.515,3.84,3.84,0,0,0-1.155-.174,3.948,3.948,0,0,0-1.714.353,3.506,3.506,0,0,0-1.222.952A4.074,4.074,0,0,0,83.4,84.59a5.6,5.6,0,0,0,0,3.274,3.989,3.989,0,0,0,.733,1.371,3.533,3.533,0,0,0,1.222.947,3.948,3.948,0,0,0,1.714.353A3.644,3.644,0,0,0,88.4,90.3a3.041,3.041,0,0,0,1.036-.661,3.386,3.386,0,0,0,.721-1.044,4.5,4.5,0,0,0,.36-1.381h-.79a3.471,3.471,0,0,1-.269,1.038" transform="translate(56.013 -40.944)" fill="#1a1818"/>
      <path id="Path_56" data-name="Path 56" d="M89.134,82.685h2.88V90.3H92.8V82.685h2.89v-.673H89.134Z" transform="translate(60.041 -40.874)" fill="#1a1818"/>
      <rect id="Rectangle_8" data-name="Rectangle 8" width="0.792" height="8.291" transform="translate(158.892 41.138)" fill="#1a1818"/>
      <path id="Path_57" data-name="Path 57" d="M103.9,88.254a2.926,2.926,0,0,1-.544.842,2.5,2.5,0,0,1-.8.569,2.551,2.551,0,0,1-1.044.209,3,3,0,0,1-1.416-.313,2.792,2.792,0,0,1-.971-.832,3.592,3.592,0,0,1-.557-1.172,5.044,5.044,0,0,1,0-2.664,3.607,3.607,0,0,1,.557-1.168,2.8,2.8,0,0,1,.971-.83,3,3,0,0,1,1.416-.313,2.81,2.81,0,0,1,.865.134,2.579,2.579,0,0,1,.753.39,2.338,2.338,0,0,1,.581.633,2.654,2.654,0,0,1,.343.852h.79a2.882,2.882,0,0,0-.388-1.148,3.04,3.04,0,0,0-.768-.843,3.333,3.333,0,0,0-1.021-.515,3.864,3.864,0,0,0-1.155-.174,3.942,3.942,0,0,0-1.714.353,3.549,3.549,0,0,0-1.225.952,4.1,4.1,0,0,0-.73,1.376,5.6,5.6,0,0,0,0,3.274,4.01,4.01,0,0,0,.73,1.371,3.577,3.577,0,0,0,1.225.947,3.942,3.942,0,0,0,1.714.353,3.619,3.619,0,0,0,1.329-.233,3.055,3.055,0,0,0,1.039-.661,3.382,3.382,0,0,0,.72-1.044,4.451,4.451,0,0,0,.358-1.381h-.788a3.521,3.521,0,0,1-.268,1.038" transform="translate(65.743 -40.944)" fill="#1a1818"/>
      <path id="Path_58" data-name="Path 58" d="M104.895,86.355h4.621v-.673h-4.621v-3h4.935v-.673H104.1V90.3h5.784v-.671h-4.994Z" transform="translate(70.125 -40.875)" fill="#1a1818"/>
      <rect id="Rectangle_9" data-name="Rectangle 9" width="233.556" height="1.289" transform="translate(0 28.302)" fill="#1a1818"/>
      <text id="_" data-name="®" transform="translate(236.615 2.233)" fill="#1a1818" font-size="16" font-family="Work Sans"><tspan x="0" y="0">®</tspan></text>
    </g>
    <g id="Group_5" data-name="Group 5" transform="translate(614.004 -573)">
      <path id="Path_59" data-name="Path 59" d="M107.32,6.413C100-3.09,87.558.194,82.01,2.317a2.461,2.461,0,0,0-2.016-1.2c-1.544,0-2.756,1.686-2.756,3.836S78.45,8.79,79.995,8.79A2.652,2.652,0,0,0,82.3,7.072c3.557-1.521,15.4-5.763,21.445,2.092,3.785,4.914,4.543,17.675-5.622,30.657a2.253,2.253,0,0,0,3.548,2.779c10.972-14.014,11.1-29.1,5.645-36.186" transform="translate(-18.926 0)" fill="#157d85"/>
      <path id="Path_60" data-name="Path 60" d="M114.692,40.468a2.523,2.523,0,0,0-.3-.122c-6.036-1.959-11.216.205-15.38,1.943l-.558.232a56.992,56.992,0,0,0-5.518,2.764l-2.648,1.44a35.038,35.038,0,0,1-5.751,2.714,8.744,8.744,0,0,1-7.81-1.185,9.269,9.269,0,0,1-3.984-7.366c-.2-6.355,7.472-9.956,13.723-11.833a8.643,8.643,0,1,0-1.034-4.437c-7.573,2.231-17.488,6.962-17.193,16.412a13.92,13.92,0,0,0,5.9,10.916,13.209,13.209,0,0,0,11.8,1.774,39.029,39.029,0,0,0,6.5-3.04l1.142-.619c.506-.271,1.01-.548,1.513-.823a52.465,52.465,0,0,1,5.079-2.555l.563-.237c3.78-1.576,7.686-3.2,12.051-1.877a3.216,3.216,0,0,1,1.364,1.726c.273.985-.061,2.221-.995,3.677-4.808,7.5-12.551,12.3-23.274,18.934l-1.9,1.182C54.918,49.15,48.258,29.951,46.931,22.609c-1-5.526-.217-10.3,2.206-13.448,5.8-7.528,16.925-3.937,20.965-2.289A2.728,2.728,0,0,0,72.5,8.789c1.546,0,2.756-1.688,2.756-3.838S74.041,1.113,72.5,1.113A2.418,2.418,0,0,0,70.561,2.2C64.871.079,52.75-2.913,45.567,6.414c-3.209,4.164-4.3,10.2-3.07,17C45.561,40.362,61.7,59.04,86.789,74.66a2.262,2.262,0,0,0,2.383,0l3.095-1.92c11.224-6.951,19.335-11.972,24.692-20.335,1.657-2.583,2.175-5.046,1.542-7.318a7.747,7.747,0,0,0-3.81-4.619" transform="translate(-42.004 0.001)" fill="#157d85"/>
    </g>
  </g>
</svg>
